<svg xmlns="http://www.w3.org/2000/svg" xmlns:xlink="http://www.w3.org/1999/xlink" fill="none" version="1.1" width="96" height="96" viewBox="0 0 96 96"><defs><linearGradient x1="0.8715032935142517" y1="0.7318772673606873" x2="0.1089081700854147" y2="0.3809959295509094" id="master_svg0_57_05461"><stop offset="2.142857201397419%" stop-color="#F1644E" stop-opacity="1"/><stop offset="100%" stop-color="#E83B32" stop-opacity="1"/></linearGradient><linearGradient x1="0.5" y1="0" x2="0.5" y2="1" id="master_svg1_57_04989"><stop offset="0%" stop-color="#FFBE33" stop-opacity="1"/><stop offset="100%" stop-color="#E0770E" stop-opacity="1"/></linearGradient><linearGradient x1="0.8932589888572693" y1="0.6551511883735657" x2="0.441479688080543" y2="0.24761787108589256" id="master_svg2_57_05487"><stop offset="0%" stop-color="#AF0000" stop-opacity="1"/><stop offset="100%" stop-color="#CD2D1E" stop-opacity="1"/></linearGradient></defs><g><g><path d="M60.3862,30.901600000000002C60.3863,30.88843,60.3863,30.87526,60.3863,30.862090000000002C60.3863,25.41541,56.0243,21,50.6434,21C45.2626,21,40.9006,25.41541,40.9006,30.862090000000002C40.9006,30.86917,40.9006,30.87624,40.9006,30.88331C40.9016,31.3532,40.1329,31.689,39.814800000000005,31.345C36.905699999999996,28.2002,32.8159,26.37873,28.5,26.37873C19.9396,26.37873,13,33.4032,13,42.0684C13,50.733599999999996,19.9396,57.7581,28.5,57.7581C30.4905,57.7581,32.4452,57.37,34.2631,56.633C35.4697,56.1438,37.8053,57.7499,37.801100000000005,59.0591C37.801100000000005,59.0739,37.801100000000005,59.0886,37.801100000000005,59.1034C37.801100000000005,66.7783,43.9476,73,51.5297,73C59.1118,73,65.25829999999999,66.7783,65.25829999999999,59.1034C65.25829999999999,57.2682,64.8995,55.4601,64.2111,53.7799C63.884,52.9818,64.5967,51.929,65.4545,51.9311C65.4625,51.931200000000004,65.4705,51.931200000000004,65.4786,51.931200000000004C70.7371,51.931200000000004,75,47.6161,75,42.2932C75,36.9703,70.7371,32.6553,65.4786,32.6553C64.6721,32.6553,63.8741,32.759,63.1029,32.9602C62.0958,33.222899999999996,60.3821,31.948700000000002,60.3862,30.901600000000002ZM49.9784,53.724C55.4815,53.724,59.9427,49.2083,59.9427,43.6378C59.9427,38.0673,55.4815,33.5516,49.9784,33.5516C44.4752,33.5516,40.0141,38.0673,40.0141,43.6378C40.0141,49.2083,44.4752,53.724,49.9784,53.724Z" fill-rule="evenodd" fill="url(#master_svg0_57_05461)" fill-opacity="1"/></g><g><g><path d="M80.44490545043945,62.75809019165039C81.12520545043945,62.95249019165039,81.70830545043945,63.632790191650386,81.90260545043945,64.31309019165039Q82.09700545043945,64.94479019165038,81.90260545043945,66.40259019165039Q81.90260545043945,67.90899019165039,81.80540545043945,68.58929019165039C81.61110545043945,69.3667901916504,81.02800545043945,69.94989019165038,80.34780545043945,70.14429019165038L79.86190545043945,70.2414901916504C78.69570545043945,70.53309019165039,77.67540545043946,71.2619901916504,76.99510545043945,72.42819019165039C76.21770545043945,73.59439019165039,76.12050545043945,74.90649019165039,76.41200545043945,76.0726901916504L76.60640545043945,76.75299019165038C76.80070545043945,77.38469019165039,76.60640545043945,78.2593901916504,76.02330545043945,78.74539019165039Q75.48880545043946,79.13409019165039,74.22550545043946,79.91159019165039Q72.91360545043945,80.6890901916504,72.33050545043946,80.8834901916504C71.69890545043945,81.1749901916504,70.82420545043945,80.8834901916504,70.33840545043945,80.39749019165039L69.94960545043945,80.00879019165039C68.97790545043945,79.23129019165039,67.76310545043945,78.64819019165039,66.49980545043945,78.64819019165039C65.13930545043945,78.64819019165039,63.92460545043945,79.23129019165039,63.05000545043946,80.00879019165039L62.661205450439454,80.39749019165039C62.22390545043945,80.8834901916504,61.34930545043945,81.0777901916504,60.669085450439454,80.8834901916504Q60.03742545043946,80.6890901916504,58.774095450439454,79.91159019165039Q57.46218545043945,79.13409019165039,56.97629545043945,78.74539019165039C56.490405450439454,78.30799019165039,56.198865450439456,77.43329019165039,56.39322545043945,76.75299019165038L56.490405450439454,76.4614901916504C56.684755450439454,75.10079019165039,56.58757545043945,73.8859901916504,55.90732545043945,72.71979019165039C55.22707545043945,71.69929019165039,54.20670545043945,70.92179019165039,53.040555450439456,70.53309019165039L52.55466545043945,70.43589019165039C51.874413450439455,70.2414901916504,51.291341450439454,69.56119019165038,51.096984150439454,68.8808901916504Q50.99980545043945,68.2491901916504,50.99980545043945,66.69419019165039Q50.99980545043945,65.1877901916504,51.096984150439454,64.50749019165039C51.291341450439454,63.72999019165039,51.874413450439455,63.14679019165039,52.55466545043945,62.95249019165039L53.13773545043945,62.85529019165039C54.303875450439456,62.563690191650394,55.32425545043945,61.83481019165039,56.00450545043945,60.66857019165039C56.781935450439455,59.40514019165039,56.87911545043946,58.09312019165039,56.58757545043945,56.926870191650394L56.39322545043945,56.44094019165039C56.198865450439456,55.66344019165039,56.39322545043945,54.83735019165039,57.024885450439456,54.25423019165039Q57.55936545043945,53.86548019165039,58.82268545043945,53.08799019165039Q60.13460545043945,52.31049119165039,60.71767545043945,52.11611719165039C61.34930545043945,51.82455619165039,62.22390545043945,52.11611719165039,62.709805450439454,52.602052191650394L63.098505450439454,52.99080019165039C64.07030545043945,53.76830019165039,65.28510545043946,54.35142019165039,66.54840545043945,54.35142019165039C67.90890545043945,54.35142019165039,69.17220545043945,53.76830019165039,69.99820545043946,52.99080019165039L70.43550545043945,52.602052191650394C70.87280545043946,52.11611719165039,71.74740545043946,51.92174359165039,72.42770545043945,52.11611719165039Q73.05940545043946,52.31049119165039,74.32270545043946,53.08799019165039Q75.63460545043945,53.86548019165039,76.12050545043945,54.25423019165039C76.60640545043945,54.69157019165039,76.89790545043945,55.56626019165039,76.70360545043945,56.24656019165039L76.50920545043945,56.73250019165039C76.31480545043945,58.09312019165039,76.41200545043945,59.30795019165039,77.09230545043945,60.47420019165039C77.77250545043945,61.49466019165039,78.79290545043945,62.27219019165039,79.95900545043945,62.66089019165039L80.44490545043945,62.75809019165039ZM66.99980545043945,70.99979019165039Q67.19630545043945,70.99979019165039,67.39190545043945,70.98049019165039Q67.58740545043945,70.96129019165039,67.78020545043945,70.9228901916504Q67.97290545043946,70.88459019165039,68.16090545043946,70.82759019165039Q68.34900545043945,70.7704901916504,68.53050545043945,70.69529019165039Q68.71210545043945,70.62009019165039,68.88540545043945,70.52749019165039Q69.05870545043945,70.4347901916504,69.22210545043946,70.3256901916504Q69.38550545043945,70.2164901916504,69.53740545043945,70.09179019165039Q69.68930545043945,69.96719019165039,69.82820545043946,69.82819019165039Q69.96720545043945,69.68929019165039,70.09180545043945,69.53739019165039Q70.21650545043946,69.38549019165039,70.32570545043946,69.2220901916504Q70.43480545043946,69.05869019165038,70.52750545043945,68.88539019165039Q70.62010545043945,68.71209019165039,70.69530545043945,68.53049019165039Q70.77050545043946,68.34899019165039,70.82760545043945,68.1608901916504Q70.88460545043945,67.9728901916504,70.92290545043946,67.78019019165039Q70.96130545043945,67.58739019165039,70.98050545043945,67.39189019165039Q70.99980545043945,67.19629019165039,70.99980545043945,66.99979019165039Q70.99980545043945,66.80329019165039,70.98050545043945,66.60769019165039Q70.96130545043945,66.4121901916504,70.92290545043946,66.21939019165039Q70.88460545043945,66.02669019165039,70.82760545043945,65.83869019165039Q70.77050545043946,65.6505901916504,70.69530545043945,65.4690901916504Q70.62010545043945,65.28749019165039,70.52750545043945,65.1141901916504Q70.43480545043946,64.9408901916504,70.32570545043946,64.77749019165039Q70.21650545043946,64.61409019165039,70.09180545043945,64.4621901916504Q69.96720545043945,64.3102901916504,69.82820545043946,64.17139019165039Q69.68930545043945,64.03239019165039,69.53740545043945,63.90779019165039Q69.38550545043945,63.78309019165039,69.22210545043946,63.673890191650386Q69.05870545043945,63.56469019165039,68.88540545043945,63.472090191650395Q68.71210545043945,63.37949019165039,68.53050545043945,63.304290191650395Q68.34900545043945,63.22909019165039,68.16090545043946,63.171990191650394Q67.97290545043946,63.11499019165039,67.78020545043945,63.07669019165039Q67.58740545043945,63.03829019165039,67.39190545043945,63.01909019165039Q67.19630545043945,62.99979019165039,66.99980545043945,62.99979019165039Q66.80330545043945,62.99979019165039,66.60770545043945,63.01909019165039Q66.41220545043946,63.03829019165039,66.21940545043945,63.07669019165039Q66.02670545043945,63.11499019165039,65.83870545043945,63.171990191650394Q65.65060545043946,63.22909019165039,65.46910545043946,63.304290191650395Q65.28750545043945,63.37949019165039,65.11420545043946,63.472090191650395Q64.94090545043946,63.56469019165039,64.77750545043945,63.673890191650386Q64.61410545043945,63.78309019165039,64.46220545043946,63.90779019165039Q64.31030545043946,64.03239019165039,64.17140545043945,64.17139019165039Q64.03240545043946,64.3102901916504,63.907805450439454,64.4621901916504Q63.78310545043945,64.61409019165039,63.67390545043945,64.77749019165039Q63.564705450439455,64.9408901916504,63.47210545043946,65.1141901916504Q63.37950545043945,65.28749019165039,63.30430545043946,65.4690901916504Q63.229105450439455,65.6505901916504,63.17200545043946,65.83869019165039Q63.115005450439455,66.02669019165039,63.076705450439455,66.21939019165039Q63.03830545043945,66.4121901916504,63.019105450439454,66.60769019165039Q62.99980545043945,66.80329019165039,62.99980545043945,66.99979019165039Q62.99980545043945,67.19629019165039,63.019105450439454,67.39189019165039Q63.03830545043945,67.58739019165039,63.076705450439455,67.78019019165039Q63.115005450439455,67.9728901916504,63.17200545043946,68.1608901916504Q63.229105450439455,68.34899019165039,63.30430545043946,68.53049019165039Q63.37950545043945,68.71209019165039,63.47210545043946,68.88539019165039Q63.564705450439455,69.05869019165038,63.67390545043945,69.2220901916504Q63.78310545043945,69.38549019165039,63.907805450439454,69.53739019165039Q64.03240545043946,69.68929019165039,64.17140545043945,69.82819019165039Q64.31030545043946,69.96719019165039,64.46220545043946,70.09179019165039Q64.61410545043945,70.2164901916504,64.77750545043945,70.3256901916504Q64.94090545043946,70.4347901916504,65.11420545043946,70.52749019165039Q65.28750545043945,70.62009019165039,65.46910545043946,70.69529019165039Q65.65060545043946,70.7704901916504,65.83870545043945,70.82759019165039Q66.02670545043945,70.88459019165039,66.21940545043945,70.9228901916504Q66.41220545043946,70.96129019165039,66.60770545043945,70.98049019165039Q66.80330545043945,70.99979019165039,66.99980545043945,70.99979019165039Z" fill-rule="evenodd" fill="url(#master_svg1_57_04989)" fill-opacity="1"/></g></g><g><path d="M64.1858,53.7117C63.7998,53.50542,63.4347,53.25983,63.0987,52.99101L62.71,52.602262C62.2241,52.116327,61.3495,51.824766,60.71787,52.116327Q60.13479,52.310701,58.82288,53.0882Q57.55956,53.86569,57.02508,54.25444C56.39342,54.837559999999996,56.19906,55.66365,56.39342,56.44115L56.58777,56.927080000000004C56.879310000000004,58.09333,56.78213,59.40535,56.0047,60.66878C55.32445,61.83502,54.30407,62.563900000000004,53.13793,62.8555L52.55486,62.9527C51.874608,63.147,51.291536,63.730199999999996,51.0971787,64.5077Q51,65.188,51,66.6944Q51,68.24940000000001,51.0971787,68.8811C51.291536,69.56139999999999,51.874608,70.24170000000001,52.55486,70.4361L53.04075,70.5333C54.06711,70.8754,54.98054,71.5187,55.64856,72.3637C58.698,71.39410000000001,61.2889,69.3765,63.009299999999996,66.7279Q63.0363,66.3308,63.1411,65.9468Q63.2459,65.5628,63.4243,65.207Q63.6028,64.8512,63.8478,64.5376Q64.0928,64.2239,64.3948,63.9647C64.9531,62.4516,65.2583,60.81357,65.2583,59.10341C65.2583,57.26818,64.8995,55.46013,64.2111,53.77988C64.2018,53.75734,64.1934,53.73461,64.1858,53.7117Z" fill-rule="evenodd" fill="url(#master_svg2_57_05487)" fill-opacity="1"/></g></g></svg>
