<svg xmlns="http://www.w3.org/2000/svg" xmlns:xlink="http://www.w3.org/1999/xlink" fill="none" version="1.1" width="96" height="96" viewBox="0 0 96 96"><defs><linearGradient x1="0.5" y1="0" x2="0.5" y2="1" id="master_svg0_57_05916"><stop offset="0%" stop-color="#FFA526" stop-opacity="1"/><stop offset="100%" stop-color="#FC7D23" stop-opacity="1"/></linearGradient><linearGradient x1="0.5" y1="0" x2="0.5" y2="1" id="master_svg1_57_05164"><stop offset="5.000000074505806%" stop-color="#F05A48" stop-opacity="1"/><stop offset="100%" stop-color="#D62515" stop-opacity="1"/></linearGradient></defs><g><g><g><path d="M9,28.1579L9,22.0703C9,21.0764,9.00133452,20.540599999999998,9.0316878,20.1212C9.460668,14.19428,14.19428,9.460668,20.1212,9.0316878C20.540599999999998,9.00133452,21.0764,9,22.0703,9L28.1579,9L28.1579,14.47368L23.1872,14.47368C22.5246,14.47368,22.1674,14.47457,21.8878,14.494810000000001C17.93654,14.7808,14.78079,17.93654,14.494810000000001,21.8878C14.47457,22.1674,14.47368,22.5246,14.47368,23.1872L14.47368,28.1579L9,28.1579ZM40.4734,9L33.631299999999996,9L33.631299999999996,14.47368L40.4734,14.47368L40.4734,9ZM51.4212,9L44.5791,9L44.5791,14.47368L51.4212,14.47368L51.4212,9ZM62.3685,9L55.5264,9L55.5264,14.47368L62.3685,14.47368L62.3685,9ZM87,28.1579L87,22.0703C87,21.0764,86.9987,20.540599999999998,86.9683,20.1212C86.5393,14.19428,81.8057,9.460668,75.8788,9.0316878C75.4594,9.00133452,74.9236,9,73.9297,9L67.8421,9L67.8421,14.47368L72.81280000000001,14.47368C73.4754,14.47368,73.8326,14.47457,74.1122,14.494810000000001C78.0635,14.7808,81.2192,17.93654,81.5052,21.8878C81.5254,22.1674,81.5263,22.5246,81.5263,23.1872L81.5263,28.1579L87,28.1579ZM9,33.6315L9,40.473600000000005L14.47368,40.473600000000005L14.47368,33.6315L9,33.6315ZM81.5264,33.6315L81.5264,40.473600000000005L87,40.473600000000005L87,33.6315L81.5264,33.6315ZM9,44.5793L9,51.4214L14.47368,51.4214L14.47368,44.5793L9,44.5793ZM81.5264,44.5793L81.5264,51.4214L87,51.4214L87,44.5793L81.5264,44.5793ZM9,55.5265L9,62.3687L14.47368,62.3687L14.47368,55.5265L9,55.5265ZM81.5264,55.5265L81.5264,62.3687L87,62.3687L87,55.5265L81.5264,55.5265ZM9,67.8421L9,75C9,81.6274,14.37258,87,21,87L28.1579,87L28.1579,81.5263L21.3158,81.5263C17.53699,81.5263,14.47368,78.463,14.47368,74.6842L14.47368,67.8421L9,67.8421ZM87,67.8421L87,73.9297C87,74.9236,86.9987,75.4594,86.9683,75.8788C86.5393,81.8057,81.8057,86.5393,75.8788,86.9683C75.4594,86.9987,74.9236,87,73.9297,87L67.8421,87L67.8421,81.5263L72.81280000000001,81.5263C73.4754,81.5263,73.8326,81.5254,74.1122,81.5052C78.0635,81.2192,81.2192,78.0635,81.5052,74.1122C81.5254,73.8326,81.5263,73.4753,81.5263,72.81280000000001L81.5263,67.8421L87,67.8421ZM40.4734,81.5264L33.631299999999996,81.5264L33.631299999999996,87.0001L40.4734,87.0001L40.4734,81.5264ZM51.4212,81.5264L44.5791,81.5264L44.5791,87.0001L51.4212,87.0001L51.4212,81.5264ZM62.3685,81.5264L55.5264,81.5264L55.5264,87.0001L62.3685,87.0001L62.3685,81.5264Z" fill-rule="evenodd" fill="url(#master_svg0_57_05916)" fill-opacity="1"/></g><g><path d="M62.581634704589845,33.864832498168944C62.581634704589845,33.85327249816895,62.58173470458984,33.841712498168945,62.58173470458984,33.83015249816894C62.58173470458984,29.047692498168946,58.70013470458984,25.170732498168945,53.91203470458984,25.170732498168945C49.12383470458984,25.170732498168945,45.24223470458985,29.047692498168946,45.24223470458985,33.83015249816894C45.24223470458985,33.836362498168945,45.24223470458985,33.842582498168944,45.242334704589844,33.84879249816895C45.243234704589845,34.262982498168945,44.559134704589844,34.556092498168944,44.27583470458984,34.25388249816895C41.68703470458985,31.491662498168946,38.049734704589845,29.893392498168947,34.20733470458984,29.893392498168947C26.589854704589843,29.893392498168947,20.414634704589844,36.06123249816895,20.414634704589844,43.66973249816894C20.414634704589844,51.27823249816895,26.589854704589843,57.44613249816894,34.20733470458984,57.44613249816894C35.97923470458984,57.44613249816894,37.71843470458984,57.10553249816894,39.33583470458984,56.458432498168946C40.405434704589844,56.030532498168945,42.48863470458984,57.42703249816895,42.484034704589845,58.578932498168946C42.484034704589845,58.595132498168944,42.48393470458984,58.61133249816895,42.48393470458984,58.62753249816895C42.48393470458984,65.36643249816895,47.95343470458984,70.82943249816896,54.700434704589846,70.82943249816896C61.44733470458984,70.82943249816896,66.91683470458985,65.36643249816895,66.91683470458985,58.62753249816895C66.91683470458985,57.016432498168946,66.59743470458984,55.42853249816895,65.98483470458984,53.953032498168945C65.69253470458985,53.249032498168944,66.32933470458985,52.32793249816895,67.09153470458985,52.32983249816894C67.09863470458984,52.32983249816894,67.10573470458985,52.32983249816894,67.11293470458985,52.32983249816894C71.79223470458984,52.32983249816894,75.58553470458985,48.541032498168946,75.58553470458985,43.867232498168946C75.58553470458985,39.193432498168946,71.79223470458984,35.404632498168944,67.11293470458985,35.404632498168944C66.39503470458985,35.404632498168944,65.68503470458984,35.495632498168945,64.99893470458984,35.672232498168945C64.10703470458984,35.90173249816895,62.57793470458984,34.785792498168945,62.581634704589845,33.864832498168944M53.31993470458984,53.90373249816895C58.216934704589846,53.90373249816895,62.186734704589846,49.93863249816894,62.186734704589846,45.047432498168945C62.186734704589846,40.15633249816894,58.216934704589846,36.191232498168944,53.31993470458984,36.191232498168944C48.423034704589845,36.191232498168944,44.453234704589846,40.15633249816894,44.453234704589846,45.047432498168945C44.453234704589846,49.93863249816894,48.423034704589845,53.90373249816895,53.31993470458984,53.90373249816895Z" fill-rule="evenodd" fill="url(#master_svg1_57_05164)" fill-opacity="1"/></g></g></g></svg>
